<svg width="69" height="69" viewBox="0 0 69 69" fill="none" xmlns="http://www.w3.org/2000/svg">
<rect width="69" height="69" rx="17" fill="#30D8EF"/>
<path d="M29.7497 16.5C25.1647 16.5 21.4372 20.2275 21.4372 24.8125C21.4372 29.31 24.9547 32.95 29.5397 33.1075C29.6797 33.09 29.8197 33.09 29.9247 33.1075H30.0472C32.1986 33.0357 34.2377 32.1301 35.7334 30.5821C37.2292 29.0341 38.0643 26.9651 38.0622 24.8125C38.0622 20.2275 34.3347 16.5 29.7497 16.5ZM38.6397 37.7607C33.7572 34.5057 25.7947 34.5057 20.8772 37.7607C18.6547 39.2482 17.4297 41.2607 17.4297 43.4132C17.4297 45.5657 18.6547 47.5607 20.8597 49.0307C23.3097 50.6757 26.5297 51.4982 29.7497 51.4982C32.9697 51.4982 36.1897 50.6757 38.6397 49.0307C40.8447 47.5432 42.0697 45.5482 42.0697 43.3782C42.0522 41.2257 40.8447 39.2307 38.6397 37.7607ZM48.9822 25.8415C49.2622 29.2365 46.8472 32.2115 43.5047 32.614H43.4172C43.3122 32.614 43.2072 32.614 43.1197 32.649C41.4222 32.7365 39.8647 32.194 38.6922 31.1965C40.4947 29.5865 41.5272 27.1715 41.3172 24.5465C41.1971 23.1815 40.7336 21.8691 39.9697 20.7315C40.8867 20.2854 41.8984 20.0691 42.9176 20.1012C43.9369 20.1333 44.933 20.4129 45.8201 20.9159C46.7071 21.4188 47.4585 22.13 48.0094 22.9882C48.5603 23.8463 48.8942 24.8256 48.9822 25.8415Z" fill="black"/>
<path d="M52.4785 42.0322C52.3385 43.7297 51.2535 45.1997 49.4335 46.1972C47.6835 47.1597 45.4785 47.6147 43.291 47.5622C44.551 46.4247 45.286 45.0072 45.426 43.5022C45.601 41.3322 44.5685 39.2497 42.5035 37.5872C41.331 36.6597 39.966 35.9247 38.4785 35.3822C42.346 34.2622 47.211 35.0147 50.2035 37.4297C51.8135 38.7247 52.636 40.3522 52.4785 42.0322Z" fill="black"/>
</svg>
