<svg width="126" height="37" viewBox="0 0 126 37" fill="none" xmlns="http://www.w3.org/2000/svg">
<path d="M125.299 32.2097C125.299 34.1495 123.695 35.7207 121.711 35.7207H4.29192C2.30887 35.7207 0.699219 34.1495 0.699219 32.2097V4.20999C0.699219 2.27111 2.30887 0.694336 4.29192 0.694336H121.71C123.695 0.694336 125.298 2.27111 125.298 4.20999L125.299 32.2097Z" fill="black"/>
<path d="M121.333 0.736365C123.494 0.736365 125.252 2.45058 125.252 4.55723V31.8572C125.252 33.9639 123.494 35.6781 121.333 35.6781H4.66667C2.506 35.6781 0.747833 33.9639 0.747833 31.8572V4.55723C0.747833 2.45058 2.506 0.736365 4.66667 0.736365H121.333ZM121.333 0.00722849H4.66667C2.10117 0.00722849 0 2.05587 0 4.55723V31.8572C0 34.3586 2.10117 36.4072 4.66667 36.4072H121.333C123.899 36.4072 126 34.3586 126 31.8572V4.55723C126 2.05587 123.899 0.00722849 121.333 0.00722849Z" fill="#A6A6A6"/>
<path d="M28.1198 18.011C28.0927 15.0781 30.5829 13.6512 30.6967 13.5848C29.2865 11.58 27.1006 11.3061 26.3325 11.2843C24.4966 11.0959 22.7158 12.3554 21.7806 12.3554C20.8267 12.3554 19.3866 11.3025 17.8345 11.3334C15.8371 11.3635 13.9686 12.4909 12.9438 14.2418C10.8289 17.8117 12.4062 23.0579 14.4325 25.9435C15.4461 27.3567 16.6305 28.9346 18.1807 28.8791C19.6974 28.8182 20.2639 27.9364 22.0942 27.9364C23.9077 27.9364 24.4397 28.8791 26.0207 28.8436C27.6485 28.8182 28.6733 27.424 29.6514 25.9981C30.8227 24.3783 31.2931 22.783 31.3118 22.7011C31.2735 22.6884 28.1506 21.5263 28.1198 18.011Z" fill="white"/>
<path d="M25.1331 9.38603C25.9489 8.3914 26.507 7.03823 26.3521 5.66504C25.1714 5.716 23.6949 6.46129 22.8446 7.43408C22.0923 8.2913 21.4203 9.69634 21.5939 11.0177C22.9202 11.1141 24.2819 10.3652 25.1331 9.38603Z" fill="white"/>
<path d="M50.068 28.6762H47.9484L46.7874 25.119H42.7516L41.6456 28.6762H39.582L43.5804 16.5659H46.05L50.068 28.6762ZM46.4374 23.6266L45.3874 20.4644C45.2763 20.1413 45.0682 19.3805 44.7611 18.183H44.7238C44.6015 18.698 44.4046 19.4588 44.1339 20.4644L43.1026 23.6266H46.4374V23.6266Z" fill="white"/>
<path d="M60.3515 24.2022C60.3515 25.6873 59.9399 26.8613 59.1167 27.723C58.3794 28.4902 57.4638 28.8733 56.3708 28.8733C55.1911 28.8733 54.3436 28.4601 53.8275 27.6338H53.7902V32.2339H51.8003V22.8181C51.8003 21.8845 51.7751 20.9262 51.7266 19.9434H53.4766L53.5876 21.3275H53.625C54.2886 20.2847 55.2956 19.7642 56.6471 19.7642C57.7036 19.7642 58.5856 20.1709 59.2912 20.9854C59.9987 21.8007 60.3515 22.8727 60.3515 24.2022ZM58.3243 24.2732C58.3243 23.4233 58.1283 22.7226 57.7344 22.1711C57.3042 21.596 56.7264 21.3084 56.0022 21.3084C55.5112 21.3084 55.0651 21.4686 54.6666 21.7844C54.2671 22.1029 54.0058 22.5187 53.8835 23.0338C53.8219 23.274 53.7911 23.4706 53.7911 23.6253V25.0813C53.7911 25.7165 53.9908 26.2525 54.3903 26.6902C54.7898 27.1279 55.3087 27.3463 55.9471 27.3463C56.6966 27.3463 57.2799 27.0642 57.6971 26.5018C58.1152 25.9385 58.3243 25.196 58.3243 24.2732Z" fill="white"/>
<path d="M70.6513 24.2022C70.6513 25.6873 70.2397 26.8613 69.4156 27.723C68.6792 28.4902 67.7636 28.8733 66.6707 28.8733C65.4909 28.8733 64.6435 28.4601 64.1283 27.6338H64.0909V32.2339H62.1011V22.8181C62.1011 21.8845 62.0759 20.9262 62.0273 19.9434H63.7773L63.8884 21.3275H63.9257C64.5884 20.2847 65.5955 19.7642 66.9479 19.7642C68.0035 19.7642 68.8855 20.1709 69.5929 20.9854C70.2976 21.8007 70.6513 22.8727 70.6513 24.2022ZM68.6241 24.2732C68.6241 23.4233 68.4272 22.7226 68.0333 22.1711C67.6031 21.596 67.0272 21.3084 66.302 21.3084C65.8101 21.3084 65.3649 21.4686 64.9655 21.7844C64.566 22.1029 64.3056 22.5187 64.1833 23.0338C64.1227 23.274 64.0909 23.4706 64.0909 23.6253V25.0813C64.0909 25.7165 64.2907 26.2525 64.6883 26.6902C65.0877 27.127 65.6067 27.3463 66.2469 27.3463C66.9964 27.3463 67.5797 27.0642 67.9969 26.5018C68.4151 25.9385 68.6241 25.196 68.6241 24.2732Z" fill="white"/>
<path d="M82.1685 25.2798C82.1685 26.3099 81.8017 27.148 81.0653 27.795C80.2561 28.5021 79.1296 28.8552 77.682 28.8552C76.3454 28.8552 75.274 28.604 74.4629 28.1008L74.924 26.4837C75.7976 26.9988 76.7561 27.2572 77.8005 27.2572C78.55 27.2572 79.1333 27.0916 79.5524 26.7622C79.9696 26.4328 80.1777 25.9905 80.1777 25.439C80.1777 24.9476 80.006 24.5336 79.6616 24.1978C79.319 23.862 78.7469 23.5499 77.948 23.2614C75.7733 22.4706 74.6869 21.3122 74.6869 19.7889C74.6869 18.7933 75.0677 17.977 75.8302 17.3419C76.59 16.7058 77.6036 16.3882 78.871 16.3882C80.0013 16.3882 80.9402 16.5802 81.6897 16.9633L81.1922 18.5449C80.4922 18.1736 79.7008 17.988 78.815 17.988C78.115 17.988 77.5681 18.1563 77.1761 18.4912C76.8448 18.7906 76.6786 19.1555 76.6786 19.5877C76.6786 20.0664 76.8681 20.4623 77.2489 20.7735C77.5802 21.061 78.1822 21.3723 79.0558 21.708C80.1245 22.1276 80.9094 22.618 81.4144 23.1804C81.9174 23.741 82.1685 24.4426 82.1685 25.2798Z" fill="white"/>
<path d="M88.7474 21.3994H86.554V25.6391C86.554 26.7174 86.9404 27.2561 87.7151 27.2561C88.0707 27.2561 88.3656 27.2261 88.599 27.1661L88.654 28.6393C88.262 28.7822 87.7459 28.8541 87.1066 28.8541C86.3207 28.8541 85.7066 28.6202 85.2632 28.1534C84.8218 27.6857 84.5996 26.9012 84.5996 25.7992V21.3976H83.293V19.9416H84.5996V18.3427L86.554 17.7676V19.9416H88.7474V21.3994Z" fill="white"/>
<path d="M98.6435 24.2378C98.6435 25.58 98.2496 26.682 97.4638 27.5438C96.6396 28.4311 95.5458 28.8733 94.1822 28.8733C92.868 28.8733 91.8218 28.4484 91.0415 27.5984C90.2612 26.7485 89.8711 25.6756 89.8711 24.3825C89.8711 23.0293 90.2724 21.9209 91.0779 21.0592C91.8815 20.1965 92.966 19.7651 94.3296 19.7651C95.6438 19.7651 96.7012 20.1901 97.4992 21.041C98.2627 21.8663 98.6435 22.9319 98.6435 24.2378ZM96.579 24.3006C96.579 23.4952 96.4026 22.8045 96.0451 22.2285C95.6279 21.5314 95.0315 21.1838 94.2587 21.1838C93.4588 21.1838 92.8512 21.5324 92.434 22.2285C92.0766 22.8054 91.9002 23.5071 91.9002 24.337C91.9002 25.1423 92.0766 25.833 92.434 26.4081C92.8643 27.1052 93.4654 27.4528 94.241 27.4528C95.0007 27.4528 95.5971 27.0979 96.0274 26.3899C96.3942 25.803 96.579 25.105 96.579 24.3006Z" fill="white"/>
<path d="M105.112 21.6497C104.915 21.6142 104.705 21.596 104.485 21.596C103.785 21.596 103.244 21.8535 102.863 22.3695C102.531 22.8245 102.365 23.3996 102.365 24.0939V28.6758H100.376L100.395 22.6935C100.395 21.687 100.37 20.7706 100.32 19.9443H102.054L102.126 21.6151H102.181C102.391 21.0409 102.723 20.5786 103.176 20.2319C103.62 19.9198 104.098 19.7642 104.615 19.7642C104.798 19.7642 104.965 19.7769 105.112 19.7996V21.6497Z" fill="white"/>
<path d="M114.012 23.8967C114.012 24.2444 113.989 24.5374 113.939 24.7767H107.97C107.993 25.6394 108.282 26.2991 108.836 26.7541C109.339 27.1609 109.99 27.3647 110.788 27.3647C111.672 27.3647 112.479 27.2273 113.204 26.9516L113.516 28.2984C112.668 28.6588 111.668 28.838 110.513 28.838C109.124 28.838 108.034 28.4395 107.241 27.6432C106.449 26.847 106.053 25.7777 106.053 24.4364C106.053 23.1196 106.421 22.023 107.16 21.1485C107.932 20.2149 108.977 19.748 110.291 19.748C111.582 19.748 112.559 20.2149 113.223 21.1485C113.748 21.8902 114.012 22.8075 114.012 23.8967ZM112.115 23.3935C112.128 22.8184 111.998 22.3215 111.728 21.902C111.384 21.3624 110.855 21.093 110.143 21.093C109.492 21.093 108.963 21.356 108.559 21.8838C108.227 22.3033 108.03 22.8066 107.97 23.3926H112.115V23.3935Z" fill="white"/>
<path d="M45.7794 9.11563C45.7794 10.1867 45.4499 10.993 44.7919 11.5344C44.1825 12.034 43.3163 12.2843 42.1945 12.2843C41.6382 12.2843 41.1622 12.2606 40.7637 12.2133V6.36106C41.2835 6.27916 41.8435 6.2373 42.4483 6.2373C43.517 6.2373 44.3225 6.46389 44.8657 6.91707C45.4742 7.4294 45.7794 8.16195 45.7794 9.11563ZM44.7481 9.14202C44.7481 8.44769 44.5595 7.91534 44.1825 7.54406C43.8054 7.17369 43.2547 6.98805 42.5295 6.98805C42.2215 6.98805 41.9593 7.00807 41.7418 7.04993V11.4989C41.8622 11.5171 42.0825 11.5253 42.4026 11.5253C43.1511 11.5253 43.7289 11.3224 44.1358 10.9165C44.5427 10.5107 44.7481 9.91916 44.7481 9.14202Z" fill="white"/>
<path d="M51.2487 10.0512C51.2487 10.711 51.0555 11.2515 50.6691 11.6756C50.264 12.1115 49.7273 12.329 49.0572 12.329C48.4113 12.329 47.8971 12.1206 47.5135 11.702C47.1308 11.2843 46.9395 10.7574 46.9395 10.1222C46.9395 9.45791 47.1364 8.91282 47.5321 8.48967C47.9279 8.06652 48.4599 7.85449 49.13 7.85449C49.7759 7.85449 50.2948 8.06288 50.6877 8.48057C51.0611 8.88643 51.2487 9.41059 51.2487 10.0512ZM50.2341 10.0822C50.2341 9.68632 50.1464 9.34689 49.9719 9.06388C49.7665 8.72172 49.4744 8.55064 49.0945 8.55064C48.7016 8.55064 48.4029 8.72172 48.1976 9.06388C48.0221 9.34689 47.9353 9.69178 47.9353 10.0995C47.9353 10.4953 48.0231 10.8347 48.1976 11.1178C48.4095 11.4599 48.7044 11.631 49.0852 11.631C49.4585 11.631 49.7516 11.4572 49.9625 11.1087C50.1436 10.8202 50.2341 10.478 50.2341 10.0822Z" fill="white"/>
<path d="M58.5797 7.94189L57.2031 12.2316H56.3071L55.7368 10.3689C55.5921 9.90385 55.4745 9.44157 55.3831 8.98293H55.3653C55.2804 9.45431 55.1628 9.91568 55.0116 10.3689L54.4059 12.2316H53.4996L52.2051 7.94189H53.2103L53.7077 9.9812C53.8281 10.4635 53.9271 10.9231 54.0064 11.358H54.0241C54.0969 10.9995 54.2173 10.5427 54.3872 9.99031L55.0116 7.9428H55.8087L56.4069 9.94662C56.5516 10.4353 56.6692 10.9058 56.7597 11.3589H56.7868C56.8531 10.9176 56.9529 10.4471 57.0855 9.94662L57.6193 7.9428H58.5797V7.94189Z" fill="white"/>
<path d="M63.6514 12.2314H62.6733V9.77439C62.6733 9.01727 62.3784 8.63871 61.7866 8.63871C61.4964 8.63871 61.2621 8.74245 61.0801 8.95084C60.9 9.15923 60.8085 9.40493 60.8085 9.68612V12.2305H59.8304V9.16742C59.8304 8.79068 59.8183 8.38209 59.7949 7.93983H60.6545L60.7003 8.6105H60.7273C60.8412 8.40211 61.0111 8.23012 61.2341 8.09271C61.4992 7.93255 61.796 7.85156 62.1208 7.85156C62.5314 7.85156 62.873 7.98078 63.1446 8.24013C63.4825 8.55772 63.6514 9.03183 63.6514 9.66155V12.2314V12.2314Z" fill="white"/>
<path d="M66.3483 12.2317H65.3711V5.97363H66.3483V12.2317Z" fill="white"/>
<path d="M72.1061 10.0512C72.1061 10.711 71.9129 11.2515 71.5265 11.6756C71.1214 12.1115 70.5838 12.329 69.9146 12.329C69.2678 12.329 68.7535 12.1206 68.3709 11.702C67.9882 11.2843 67.7969 10.7574 67.7969 10.1222C67.7969 9.45791 67.9938 8.91282 68.3895 8.48967C68.7853 8.06652 69.3173 7.85449 69.9865 7.85449C70.6333 7.85449 71.1513 8.06288 71.5451 8.48057C71.9185 8.88643 72.1061 9.41059 72.1061 10.0512ZM71.0906 10.0822C71.0906 9.68632 71.0029 9.34689 70.8283 9.06388C70.6239 8.72172 70.3309 8.55064 69.9519 8.55064C69.5581 8.55064 69.2594 8.72172 69.055 9.06388C68.8795 9.34689 68.7927 9.69178 68.7927 10.0995C68.7927 10.4953 68.8805 10.8347 69.055 11.1178C69.2669 11.4599 69.5618 11.631 69.9426 11.631C70.3159 11.631 70.6081 11.4572 70.819 11.1087C71.001 10.8202 71.0906 10.478 71.0906 10.0822Z" fill="white"/>
<path d="M76.8405 12.2316H75.9622L75.8894 11.7375H75.8624C75.5618 12.1315 75.1334 12.329 74.5772 12.329C74.1618 12.329 73.8259 12.1988 73.5729 11.9404C73.3433 11.7056 73.2285 11.4135 73.2285 11.0668C73.2285 10.5426 73.4525 10.1431 73.9033 9.8665C74.3532 9.58986 74.986 9.45427 75.8008 9.46064V9.38056C75.8008 8.81545 75.4965 8.53335 74.887 8.53335C74.453 8.53335 74.0704 8.63982 73.74 8.85094L73.5412 8.22486C73.95 7.97825 74.4549 7.85449 75.0504 7.85449C76.2002 7.85449 76.777 8.44599 76.777 9.62899V11.2088C76.777 11.6374 76.7985 11.9786 76.8405 12.2316ZM75.825 10.7574V10.0958C74.7461 10.0776 74.2067 10.3661 74.2067 10.9603C74.2067 11.1842 74.2682 11.3516 74.3942 11.4636C74.5202 11.5755 74.6808 11.631 74.8721 11.631C75.0868 11.631 75.2874 11.5646 75.4704 11.4326C75.6542 11.2998 75.7672 11.1314 75.8092 10.9248C75.8194 10.8784 75.825 10.822 75.825 10.7574Z" fill="white"/>
<path d="M82.3992 12.2317H81.5312L81.4855 11.5428H81.4584C81.1812 12.067 80.7089 12.3291 80.0453 12.3291C79.5152 12.3291 79.0737 12.1261 78.7237 11.7203C78.3737 11.3144 78.1992 10.7875 78.1992 10.1405C78.1992 9.44619 78.3887 8.88381 78.7695 8.45429C79.1382 8.05389 79.5899 7.85369 80.1275 7.85369C80.7183 7.85369 81.1317 8.04752 81.3669 8.43609H81.3856V5.97363H82.3647V11.076C82.3647 11.4937 82.3759 11.8786 82.3992 12.2317ZM81.3856 10.4226V9.70736C81.3856 9.5836 81.3763 9.4835 81.3585 9.40706C81.3035 9.17774 81.1849 8.98482 81.0048 8.82921C80.8228 8.6736 80.6035 8.59534 80.3505 8.59534C79.9856 8.59534 79.7 8.73639 79.49 9.0194C79.2819 9.30241 79.1764 9.66368 79.1764 10.105C79.1764 10.5291 79.2763 10.8731 79.4769 11.1379C79.6888 11.42 79.9744 11.561 80.3319 11.561C80.6529 11.561 80.9096 11.4436 81.1047 11.208C81.2932 10.9905 81.3856 10.7284 81.3856 10.4226Z" fill="white"/>
<path d="M90.7643 10.0512C90.7643 10.711 90.5711 11.2515 90.1847 11.6756C89.7796 12.1115 89.2439 12.329 88.5728 12.329C87.9279 12.329 87.4136 12.1206 87.0291 11.702C86.6464 11.2843 86.4551 10.7574 86.4551 10.1222C86.4551 9.45791 86.652 8.91282 87.0477 8.48967C87.4435 8.06652 87.9755 7.85449 88.6465 7.85449C89.2915 7.85449 89.8113 8.06288 90.2033 8.48057C90.5767 8.88643 90.7643 9.41059 90.7643 10.0512ZM89.7507 10.0822C89.7507 9.68632 89.6629 9.34689 89.4884 9.06388C89.2821 8.72172 88.9909 8.55064 88.6101 8.55064C88.2181 8.55064 87.9195 8.72172 87.7132 9.06388C87.5377 9.34689 87.4509 9.69178 87.4509 10.0995C87.4509 10.4953 87.5387 10.8347 87.7132 11.1178C87.9251 11.4599 88.22 11.631 88.6008 11.631C88.9741 11.631 89.2681 11.4572 89.4791 11.1087C89.6592 10.8202 89.7507 10.478 89.7507 10.0822Z" fill="white"/>
<path d="M96.0236 12.2314H95.0464V9.77439C95.0464 9.01727 94.7514 8.63871 94.1588 8.63871C93.8685 8.63871 93.6342 8.74245 93.4532 8.95084C93.2721 9.15923 93.1816 9.40493 93.1816 9.68612V12.2305H92.2025V9.16742C92.2025 8.79068 92.1913 8.38209 92.168 7.93983H93.0266L93.0724 8.6105H93.0994C93.2142 8.40211 93.3841 8.23012 93.6062 8.09271C93.8722 7.93255 94.1681 7.85156 94.4938 7.85156C94.9036 7.85156 95.2452 7.98078 95.5168 8.24013C95.8556 8.55772 96.0236 9.03183 96.0236 9.66155V12.2314V12.2314Z" fill="white"/>
<path d="M102.605 8.65622H101.528V10.7401C101.528 11.2697 101.72 11.5346 102.099 11.5346C102.274 11.5346 102.42 11.52 102.534 11.49L102.56 12.2134C102.366 12.2844 102.113 12.3199 101.8 12.3199C101.414 12.3199 101.113 12.2052 100.896 11.9759C100.677 11.7466 100.569 11.3607 100.569 10.8193V8.65622H99.9258V7.94187H100.569V7.15564L101.527 6.87354V7.94097H102.604V8.65622H102.605Z" fill="white"/>
<path d="M107.784 12.2317H106.805V9.7929C106.805 9.02395 106.51 8.63902 105.919 8.63902C105.466 8.63902 105.156 8.86197 104.986 9.30787C104.957 9.4016 104.94 9.51626 104.94 9.65094V12.2308H103.963V5.97363H104.94V8.55894H104.959C105.267 8.08847 105.708 7.85369 106.28 7.85369C106.685 7.85369 107.021 7.98291 107.287 8.24226C107.618 8.56531 107.784 9.04579 107.784 9.68097V12.2317V12.2317Z" fill="white"/>
<path d="M113.126 9.88368C113.126 10.0548 113.113 10.1985 113.09 10.3159H110.157C110.17 10.74 110.31 11.063 110.581 11.2869C110.83 11.4871 111.15 11.5872 111.542 11.5872C111.976 11.5872 112.371 11.5199 112.728 11.3843L112.881 12.0468C112.464 12.2233 111.973 12.3116 111.404 12.3116C110.723 12.3116 110.186 12.1159 109.798 11.7246C109.408 11.3333 109.215 10.8082 109.215 10.1494C109.215 9.50239 109.395 8.96367 109.758 8.53415C110.137 8.07551 110.649 7.84619 111.296 7.84619C111.929 7.84619 112.41 8.07551 112.734 8.53415C112.997 8.89815 113.126 9.3486 113.126 9.88368ZM112.193 9.63707C112.201 9.35406 112.136 9.11018 112.004 8.90452C111.834 8.63971 111.575 8.50685 111.225 8.50685C110.906 8.50685 110.646 8.63607 110.447 8.89542C110.284 9.10199 110.188 9.3486 110.157 9.63707H112.193Z" fill="white"/>
</svg>
