<svg width="30" height="30" viewBox="0 0 30 30" fill="none" xmlns="http://www.w3.org/2000/svg">
<path d="M21.2956 0H8.71935C3.25662 0 0 3.255 0 8.715V21.27C0 26.745 3.25662 30 8.71935 30H21.2806C26.7433 30 29.9999 26.745 29.9999 21.285V8.715C30.015 3.255 26.7583 0 21.2956 0ZM14.2571 22.875C14.2571 23.415 13.7168 23.775 13.2216 23.565C11.4057 22.785 9.0345 22.065 7.38368 21.855L7.09854 21.825C6.18308 21.705 5.43271 20.85 5.43271 19.92V8.37C5.43271 7.215 6.36317 6.36 7.50374 6.45C9.37967 6.6 12.1561 7.5 13.8969 8.49C14.137 8.625 14.2571 8.88 14.2571 9.135V22.875ZM24.5822 19.905C24.5822 20.835 23.8319 21.69 22.9164 21.81L22.6013 21.84C20.9654 22.065 18.6093 22.77 16.7934 23.535C16.2981 23.745 15.7579 23.385 15.7579 22.845V9.12C15.756 8.98658 15.7898 8.85507 15.8557 8.73905C15.9217 8.62304 16.0174 8.52671 16.133 8.46C17.8739 7.485 20.5903 6.615 22.4362 6.45H22.4962C23.6518 6.45 24.5822 7.38 24.5822 8.535V19.905Z" fill="#7D4ACE"/>
</svg>
