<svg width="22" height="22" viewBox="0 0 22 22" fill="none" xmlns="http://www.w3.org/2000/svg">
<path d="M21.4577 10.7297C21.4577 4.80334 16.6543 0 10.7288 0C4.80334 0 0 4.80334 0 10.7297C0 16.0839 3.9235 20.5224 9.05231 21.3271V13.8306H6.32875V10.7288H9.05231V8.36561C9.05231 5.67603 10.6546 4.19085 13.1046 4.19085C14.2786 4.19085 15.5062 4.40008 15.5062 4.40008V7.04049H14.1543C12.822 7.04049 12.4062 7.86757 12.4062 8.71611V10.7297H15.382L14.9063 13.8315H12.4062V21.328C17.5351 20.5233 21.4586 16.0848 21.4586 10.7297H21.4577Z" fill="black"/>
</svg>
