<svg width="69" height="69" viewBox="0 0 69 69" fill="none" xmlns="http://www.w3.org/2000/svg">
<rect width="69" height="69" rx="17" fill="#25E9A2"/>
<path d="M33.7531 27.4629V32.2296L32.0698 31.6462C31.2198 31.3462 30.7031 31.0629 30.7031 29.6129C30.7031 28.4296 31.5865 27.4629 32.6698 27.4629H33.7531ZM39.2998 38.3812C39.2998 39.5646 38.4165 40.5312 37.3331 40.5312H36.2498V35.7646L37.9331 36.3479C38.7831 36.6479 39.2998 36.9312 39.2998 38.3812Z" fill="black"/>
<path d="M41.984 17.333H28.0173C21.9507 17.333 18.334 20.9497 18.334 27.0163V40.983C18.334 47.0497 21.9507 50.6663 28.0173 50.6663H41.984C48.0507 50.6663 51.6673 47.0497 51.6673 40.983V27.0163C51.6673 20.9497 48.0507 17.333 41.984 17.333ZM38.7673 33.9997C40.0673 34.4497 41.8007 35.3997 41.8007 38.383C41.8007 40.9497 39.8006 43.033 37.334 43.033H36.2507V43.9997C36.2507 44.683 35.684 45.2497 35.0007 45.2497C34.3173 45.2497 33.7507 44.683 33.7507 43.9997V43.033H33.1507C30.4173 43.033 28.2007 40.7163 28.2007 37.883C28.2007 37.5515 28.3323 37.2335 28.5668 36.9991C28.8012 36.7647 29.1191 36.633 29.4507 36.633C29.7822 36.633 30.1001 36.7647 30.3345 36.9991C30.569 37.2335 30.7007 37.5515 30.7007 37.883C30.7007 39.3497 31.8007 40.533 33.1507 40.533H33.7507V34.883L31.234 33.9997C29.934 33.5497 28.2007 32.5997 28.2007 29.6163C28.2007 27.0497 30.2007 24.9663 32.6673 24.9663H33.7507V23.9997C33.7507 23.3163 34.3173 22.7497 35.0007 22.7497C35.684 22.7497 36.2507 23.3163 36.2507 23.9997V24.9663H36.8507C39.584 24.9663 41.8007 27.283 41.8007 30.1163C41.8007 30.4479 41.669 30.7658 41.4345 31.0002C41.2001 31.2346 40.8822 31.3663 40.5507 31.3663C40.2191 31.3663 39.9012 31.2346 39.6668 31.0002C39.4323 30.7658 39.3007 30.4479 39.3007 30.1163C39.3007 28.6497 38.2006 27.4663 36.8507 27.4663H36.2507V33.1163L38.7673 33.9997Z" fill="black"/>
</svg>
