<svg width="69" height="69" viewBox="0 0 69 69" fill="none" xmlns="http://www.w3.org/2000/svg">
<rect width="69" height="69" rx="17" fill="#25E9A2"/>
<path d="M43 20H27C22.584 20 19 23.5698 19 27.972V39.1456C19 43.5478 22.584 47.1176 27 47.1176H29.4C29.832 47.1176 30.408 47.4057 30.68 47.7579L33.08 50.9435C34.136 52.3522 35.864 52.3522 36.92 50.9435L39.32 47.7579C39.624 47.3577 40.104 47.1176 40.6 47.1176H43C47.416 47.1176 51 43.5478 51 39.1456V27.972C51 23.5698 47.416 20 43 20ZM28.6 36.008C27.704 36.008 27 35.2876 27 34.4072C27 33.5268 27.72 32.8064 28.6 32.8064C29.48 32.8064 30.2 33.5268 30.2 34.4072C30.2 35.2876 29.496 36.008 28.6 36.008ZM35 36.008C34.104 36.008 33.4 35.2876 33.4 34.4072C33.4 33.5268 34.12 32.8064 35 32.8064C35.88 32.8064 36.6 33.5268 36.6 34.4072C36.6 35.2876 35.896 36.008 35 36.008ZM41.4 36.008C40.504 36.008 39.8 35.2876 39.8 34.4072C39.8 33.5268 40.52 32.8064 41.4 32.8064C42.28 32.8064 43 33.5268 43 34.4072C43 35.2876 42.296 36.008 41.4 36.008Z" fill="black"/>
</svg>
