<svg width="126" height="37" viewBox="0 0 126 37" fill="none" xmlns="http://www.w3.org/2000/svg">
<path d="M121.167 36.3999H4.66025C2.09828 36.3999 0 34.3513 0 31.8499V4.54991C0 2.04855 2.09828 -8.39221e-05 4.66025 -8.39221e-05H121.167C123.729 -8.39221e-05 125.827 2.04855 125.827 4.54991V31.8499C125.827 34.3513 123.729 36.3999 121.167 36.3999Z" fill="black"/>
<path d="M121.167 0.729052C123.324 0.729052 125.08 2.44327 125.08 4.54991V31.8499C125.08 33.9566 123.324 35.6708 121.167 35.6708H4.66025C2.50256 35.6708 0.746805 33.9566 0.746805 31.8499V4.54991C0.746805 2.44327 2.50256 0.729052 4.66025 0.729052H121.167ZM121.167 -8.39221e-05H4.66025C2.09828 -8.39221e-05 0 2.04855 0 4.54991V31.8499C0 34.3513 2.09828 36.3999 4.66025 36.3999H121.167C123.729 36.3999 125.827 34.3513 125.827 31.8499V4.54991C125.827 2.04855 123.729 -8.39221e-05 121.167 -8.39221e-05Z" fill="#A6A6A6"/>
<path d="M44.1959 9.32173C44.1959 10.0816 43.9628 10.6901 43.5038 11.144C42.976 11.682 42.2886 11.9528 41.4463 11.9528C40.6412 11.9528 39.9539 11.6775 39.39 11.1349C38.8249 10.5844 38.543 9.90868 38.543 9.09992C38.543 8.29116 38.8249 7.61548 39.39 7.06948C39.9539 6.52235 40.6412 6.24707 41.4463 6.24707C41.8471 6.24707 42.2292 6.32783 42.5939 6.47798C42.9574 6.62927 43.2533 6.83402 43.4677 7.08655L42.9807 7.56657C42.6067 7.13546 42.0976 6.92275 41.4463 6.92275C40.8591 6.92275 40.35 7.12295 39.9177 7.52676C39.4902 7.93171 39.2758 8.4561 39.2758 9.09992C39.2758 9.74374 39.4902 10.2727 39.9177 10.6776C40.35 11.0769 40.8591 11.2816 41.4463 11.2816C42.0696 11.2816 42.5939 11.0769 43.0075 10.6731C43.2801 10.4058 43.4351 10.0372 43.4758 9.56629H41.4463V8.90882H44.1539C44.1865 9.05101 44.1959 9.18864 44.1959 9.32173V9.32173Z" fill="white" stroke="white" stroke-width="0.16" stroke-miterlimit="10"/>
<path d="M48.4919 7.04157H45.9485V8.77057H48.2414V9.42804H45.9485V11.157H48.4919V11.827H45.2285V6.37158H48.4919V7.04157Z" fill="white" stroke="white" stroke-width="0.16" stroke-miterlimit="10"/>
<path d="M51.5222 11.827H50.8022V7.04157H49.2422V6.37158H53.0834V7.04157H51.5222V11.827V11.827Z" fill="white" stroke="white" stroke-width="0.16" stroke-miterlimit="10"/>
<path d="M55.8633 11.827V6.37158H56.5821V11.827H55.8633Z" fill="white" stroke="white" stroke-width="0.16" stroke-miterlimit="10"/>
<path d="M59.7683 11.827H59.0541V7.04157H57.4883V6.37158H61.3341V7.04157H59.7683V11.827Z" fill="white" stroke="white" stroke-width="0.16" stroke-miterlimit="10"/>
<path d="M68.6064 11.1258C68.0553 11.6775 67.3726 11.9528 66.5582 11.9528C65.7391 11.9528 65.0564 11.6775 64.5053 11.1258C63.9554 10.5753 63.6816 9.89958 63.6816 9.09992C63.6816 8.30026 63.9554 7.62458 64.5053 7.07403C65.0564 6.52235 65.7391 6.24707 66.5582 6.24707C67.3679 6.24707 68.0506 6.52235 68.6017 7.07858C69.1563 7.63368 69.4301 8.30481 69.4301 9.09992C69.4301 9.89958 69.1563 10.5753 68.6064 11.1258ZM65.0378 10.6685C65.4525 11.0769 65.957 11.2816 66.5582 11.2816C67.1547 11.2816 67.6638 11.0769 68.0739 10.6685C68.4875 10.2602 68.6972 9.73578 68.6972 9.09992C68.6972 8.46406 68.4875 7.93967 68.0739 7.53131C67.6638 7.12295 67.1547 6.9182 66.5582 6.9182C65.957 6.9182 65.4525 7.12295 65.0378 7.53131C64.6242 7.93967 64.4145 8.46406 64.4145 9.09992C64.4145 9.73578 64.6242 10.2602 65.0378 10.6685V10.6685Z" fill="white" stroke="white" stroke-width="0.16" stroke-miterlimit="10"/>
<path d="M70.4414 11.827V6.37158H71.3152L74.0321 10.6145H74.0636L74.0321 9.56568V6.37158H74.751V11.827H74.0007L71.1556 7.37486H71.1241L71.1556 8.42818V11.827H70.4414V11.827Z" fill="white" stroke="white" stroke-width="0.16" stroke-miterlimit="10"/>
<path d="M63.5058 19.7945C61.3167 19.7945 59.5283 21.4211 59.5283 23.6654C59.5283 25.8915 61.3167 27.5352 63.5058 27.5352C65.6997 27.5352 67.488 25.8915 67.488 23.6654C67.488 21.4211 65.6997 19.7945 63.5058 19.7945ZM63.5058 26.0109C62.3047 26.0109 61.2713 25.0429 61.2713 23.6654C61.2713 22.2697 62.3047 21.3188 63.5058 21.3188C64.707 21.3188 65.7451 22.2697 65.7451 23.6654C65.7451 25.0429 64.707 26.0109 63.5058 26.0109V26.0109ZM54.8273 19.7945C52.6335 19.7945 50.8498 21.4211 50.8498 23.6654C50.8498 25.8915 52.6335 27.5352 54.8273 27.5352C57.0199 27.5352 58.8048 25.8915 58.8048 23.6654C58.8048 21.4211 57.0199 19.7945 54.8273 19.7945ZM54.8273 26.0109C53.625 26.0109 52.588 25.0429 52.588 23.6654C52.588 22.2697 53.625 21.3188 54.8273 21.3188C56.0285 21.3188 57.0619 22.2697 57.0619 23.6654C57.0619 25.0429 56.0285 26.0109 54.8273 26.0109ZM44.5002 20.9809V22.6257H48.5231C48.4055 23.5448 48.0909 24.2205 47.6086 24.6914C47.0214 25.2602 46.1068 25.8915 44.5002 25.8915C42.0244 25.8915 40.0858 23.9407 40.0858 21.5235C40.0858 19.1063 42.0244 17.1555 44.5002 17.1555C45.8388 17.1555 46.8128 17.6662 47.5317 18.3283L48.7189 17.1692C47.7134 16.2319 46.3759 15.5118 44.5002 15.5118C41.1052 15.5118 38.252 18.2088 38.252 21.5235C38.252 24.8382 41.1052 27.5352 44.5002 27.5352C46.3352 27.5352 47.7134 26.9482 48.7969 25.8471C49.9072 24.7631 50.2533 23.2389 50.2533 22.0081C50.2533 21.6259 50.2206 21.2744 50.1624 20.9809H44.5002ZM86.729 22.2561C86.4017 21.3904 85.3916 19.7945 83.334 19.7945C81.2952 19.7945 79.5977 21.3631 79.5977 23.6654C79.5977 25.8335 81.2777 27.5352 83.5298 27.5352C85.3508 27.5352 86.4017 26.4512 86.8339 25.8198L85.4824 24.9406C85.0315 25.5844 84.4176 26.0109 83.5298 26.0109C82.6478 26.0109 82.0152 25.6162 81.6098 24.8382L86.912 22.6963L86.729 22.2561V22.2561ZM81.3232 23.5448C81.2777 22.0524 82.5104 21.288 83.3935 21.288C84.0855 21.288 84.6727 21.6259 84.8684 22.1093L81.3232 23.5448V23.5448ZM77.0136 27.2997H78.7565V15.9247H77.0136V27.2997ZM74.1592 20.6567H74.1009C73.7095 20.204 72.9627 19.7945 72.0166 19.7945C70.0314 19.7945 68.2162 21.4962 68.2162 23.6779C68.2162 25.8471 70.0314 27.5352 72.0166 27.5352C72.9627 27.5352 73.7095 27.1223 74.1009 26.6559H74.1592V27.211C74.1592 28.6909 73.3495 29.486 72.0434 29.486C70.9786 29.486 70.318 28.7353 70.0453 28.1039L68.5296 28.7216C68.9665 29.7476 70.1234 31.0103 72.0434 31.0103C74.0869 31.0103 75.8112 29.8364 75.8112 26.9801V20.03H74.1592V20.6567V20.6567ZM72.1658 26.0109C70.9646 26.0109 69.9591 25.0293 69.9591 23.6779C69.9591 22.3141 70.9646 21.3188 72.1658 21.3188C73.3495 21.3188 74.2827 22.3141 74.2827 23.6779C74.2827 25.0293 73.3495 26.0109 72.1658 26.0109V26.0109ZM94.8891 15.9247H90.7205V27.2997H92.4588V22.9897H94.8891C96.8196 22.9897 98.7129 21.6259 98.7129 19.4567C98.7129 17.2886 96.815 15.9247 94.8891 15.9247V15.9247ZM94.9346 21.4075H92.4588V17.507H94.9346C96.2325 17.507 96.9734 18.5592 96.9734 19.4567C96.9734 20.3371 96.2325 21.4075 94.9346 21.4075ZM105.68 19.7729C104.424 19.7729 103.118 20.3143 102.581 21.5144L104.123 22.1457C104.455 21.5144 105.066 21.3097 105.711 21.3097C106.613 21.3097 107.528 21.8386 107.542 22.7725V22.8919C107.227 22.7145 106.554 22.4517 105.725 22.4517C104.064 22.4517 102.371 23.3446 102.371 25.0111C102.371 26.5353 103.732 27.517 105.262 27.517C106.431 27.517 107.077 27.0017 107.482 26.4022H107.542V27.2815H109.221V22.9181C109.221 20.9013 107.678 19.7729 105.68 19.7729ZM105.47 26.0064C104.902 26.0064 104.109 25.7311 104.109 25.0429C104.109 24.1625 105.097 23.8247 105.953 23.8247C106.718 23.8247 107.077 23.9896 107.542 24.2069C107.405 25.2602 106.477 26.0064 105.47 26.0064V26.0064ZM115.337 20.022L113.339 24.9531H113.28L111.214 20.022H109.339L112.443 26.913L110.672 30.7475H112.489L117.271 20.022H115.337V20.022ZM99.6682 27.2997H101.411V15.9247H99.6682V27.2997Z" fill="white"/>
<path d="M9.72521 6.8605C9.45142 7.14033 9.29297 7.57599 9.29297 8.14019V28.2648C9.29297 28.829 9.45142 29.2647 9.72521 29.5445L9.79278 29.606L21.3432 18.3333V18.0672L9.79278 6.79453L9.72521 6.8605Z" fill="url(#paint0_linear_441_84)"/>
<path d="M25.1896 22.0923L21.3438 18.3328V18.0667L25.1943 14.3072L25.2805 14.3562L29.8406 16.8894C31.1419 17.6083 31.1419 18.7913 29.8406 19.5147L25.2805 22.0434L25.1896 22.0923V22.0923Z" fill="url(#paint1_linear_441_84)"/>
<path d="M25.2813 22.0435L21.3446 18.1998L9.72656 29.5441C10.1588 29.9878 10.8637 30.0412 11.6652 29.5976L25.2813 22.0435" fill="url(#paint2_linear_441_84)"/>
<path d="M25.2813 14.3566L11.6652 6.80245C10.8637 6.36337 10.1588 6.41683 9.72656 6.86046L21.3446 18.2002L25.2813 14.3566Z" fill="url(#paint3_linear_441_84)"/>
<defs>
<linearGradient id="paint0_linear_441_84" x1="20.3177" y1="28.4744" x2="5.05006" y2="12.8369" gradientUnits="userSpaceOnUse">
<stop stop-color="#00A0FF"/>
<stop offset="0.0066" stop-color="#00A1FF"/>
<stop offset="0.2601" stop-color="#00BEFF"/>
<stop offset="0.5122" stop-color="#00D2FF"/>
<stop offset="0.7604" stop-color="#00DFFF"/>
<stop offset="1" stop-color="#00E3FF"/>
</linearGradient>
<linearGradient id="paint1_linear_441_84" x1="31.5352" y1="18.1985" x2="8.98243" y2="18.1985" gradientUnits="userSpaceOnUse">
<stop stop-color="#FFE000"/>
<stop offset="0.4087" stop-color="#FFBD00"/>
<stop offset="0.7754" stop-color="#FFA500"/>
<stop offset="1" stop-color="#FF9C00"/>
</linearGradient>
<linearGradient id="paint2_linear_441_84" x1="23.1406" y1="16.1104" x2="2.43651" y2="-5.09541" gradientUnits="userSpaceOnUse">
<stop stop-color="#FF3A44"/>
<stop offset="1" stop-color="#C31162"/>
</linearGradient>
<linearGradient id="paint3_linear_441_84" x1="6.80207" y1="36.2399" x2="16.0474" y2="26.7706" gradientUnits="userSpaceOnUse">
<stop stop-color="#32A071"/>
<stop offset="0.0685" stop-color="#2DA771"/>
<stop offset="0.4762" stop-color="#15CF74"/>
<stop offset="0.8009" stop-color="#06E775"/>
<stop offset="1" stop-color="#00F076"/>
</linearGradient>
</defs>
</svg>
