<svg width="22" height="22" viewBox="0 0 22 22" fill="none" xmlns="http://www.w3.org/2000/svg">
<path d="M11.1883 0C8.27348 0 7.90958 0.0134116 6.76512 0.0643757C5.62245 0.118022 4.84458 0.297738 4.16059 0.563287C3.45514 0.836884 2.85608 1.20436 2.25972 1.80073C1.66335 2.3971 1.29497 2.99526 1.02227 3.7016C0.756722 4.38559 0.576112 5.16347 0.52336 6.30614C0.469714 7.45059 0.458984 7.81449 0.458984 10.7293C0.458984 13.6441 0.472396 14.008 0.52336 15.1524C0.577006 16.2942 0.756722 17.073 1.02227 17.757C1.29166 18.473 1.71395 19.1217 2.25972 19.6578C2.79553 20.204 3.44432 20.6263 4.16059 20.8953C4.84547 21.1599 5.62335 21.3414 6.76512 21.3942C7.90958 21.4478 8.27348 21.4586 11.1883 21.4586C14.1031 21.4586 14.467 21.4452 15.6114 21.3942C16.7532 21.3405 17.532 21.1599 18.2159 20.8953C18.9318 20.6256 19.5805 20.2033 20.1168 19.6578C20.6631 19.1222 21.0855 18.4733 21.3543 17.757C21.6189 17.073 21.8004 16.2942 21.8532 15.1524C21.9068 14.008 21.9175 13.6441 21.9175 10.7293C21.9175 7.81449 21.9041 7.45059 21.8532 6.30614C21.7995 5.16436 21.6189 4.3847 21.3543 3.7016C21.0847 2.98562 20.6625 2.33695 20.1168 1.80073C19.5814 1.25411 18.9325 0.831689 18.2159 0.563287C17.532 0.297738 16.7532 0.117128 15.6114 0.0643757C14.467 0.0107293 14.1031 0 11.1883 0ZM11.1883 1.93127C14.0521 1.93127 14.3936 1.94558 15.5247 1.99475C16.5708 2.04393 17.1385 2.21738 17.5159 2.36581C18.0183 2.55983 18.3742 2.7923 18.7515 3.16693C19.1261 3.54245 19.3586 3.8992 19.5526 4.40169C19.6993 4.779 19.8745 5.34676 19.9219 6.39286C19.9729 7.5248 19.9845 7.86456 19.9845 10.7293C19.9845 13.594 19.9711 13.9347 19.9183 15.0657C19.8638 16.1118 19.6894 16.6796 19.5419 17.0569C19.3674 17.5225 19.093 17.9442 18.7381 18.2925C18.3913 18.6478 17.9698 18.9214 17.5042 19.0937C17.1287 19.2403 16.552 19.4155 15.5059 19.4629C14.3668 19.5139 14.0315 19.5255 11.1614 19.5255C8.29047 19.5255 7.95518 19.5121 6.81698 19.4593C5.76998 19.4048 5.19328 19.2304 4.81776 19.0829C4.35184 18.9105 3.93051 18.6359 3.58478 18.2791C3.22587 17.9347 2.9506 17.5126 2.78009 17.0453C2.63256 16.6697 2.4591 16.093 2.40456 15.0469C2.36433 13.9203 2.35002 13.5725 2.35002 10.7159C2.35002 7.8583 2.36433 7.5096 2.40456 6.36962C2.4591 5.32351 2.63256 4.74771 2.78009 4.37218C2.96785 3.86254 3.20836 3.51384 3.58478 3.13742C3.95941 2.76279 4.30901 2.52138 4.81776 2.33451C5.19328 2.18609 5.75746 2.01174 6.80357 1.95809C7.94355 1.91786 8.27884 1.90445 11.148 1.90445L11.1883 1.93127ZM11.1883 5.2198C10.4648 5.2198 9.74832 5.3623 9.07988 5.63918C8.41144 5.91606 7.80407 6.32188 7.29247 6.83349C6.78087 7.34509 6.37504 7.95245 6.09816 8.62089C5.82129 9.28933 5.67878 10.0058 5.67878 10.7293C5.67878 11.4528 5.82129 12.1692 6.09816 12.8377C6.37504 13.5061 6.78087 14.1135 7.29247 14.6251C7.80407 15.1367 8.41144 15.5425 9.07988 15.8194C9.74832 16.0963 10.4648 16.2388 11.1883 16.2388C12.6495 16.2388 14.0508 15.6583 15.0841 14.6251C16.1173 13.5918 16.6978 12.1905 16.6978 10.7293C16.6978 9.26807 16.1173 7.86672 15.0841 6.83349C14.0508 5.80026 12.6495 5.2198 11.1883 5.2198ZM11.1883 14.3057C9.21229 14.3057 7.61184 12.7053 7.61184 10.7293C7.61184 8.75331 9.21229 7.15285 11.1883 7.15285C13.1642 7.15285 14.7647 8.75331 14.7647 10.7293C14.7647 12.7053 13.1642 14.3057 11.1883 14.3057ZM18.2034 5.00253C18.191 5.33569 18.0499 5.65108 17.8098 5.88239C17.5697 6.11371 17.2493 6.24294 16.9159 6.24294C16.5825 6.24294 16.2621 6.11371 16.022 5.88239C15.7819 5.65108 15.6408 5.33569 15.6284 5.00253C15.6284 4.66106 15.764 4.33357 16.0055 4.09212C16.247 3.85066 16.5744 3.71501 16.9159 3.71501C17.2574 3.71501 17.5849 3.85066 17.8263 4.09212C18.0678 4.33357 18.2034 4.66106 18.2034 5.00253Z" fill="black"/>
</svg>
