<svg width="22" height="22" viewBox="0 0 22 22" fill="none" xmlns="http://www.w3.org/2000/svg">
<path d="M18.6021 18.2863H15.4245V13.307C15.4245 12.1196 15.4003 10.5916 13.7686 10.5916C12.1118 10.5916 11.8588 11.8836 11.8588 13.2194V18.2863H8.6811V8.04696H11.7336V9.44266H11.7747C12.2012 8.63797 13.2384 7.78856 14.7879 7.78856C18.0075 7.78856 18.603 9.9076 18.603 12.6659L18.6021 18.2863ZM5.09216 6.6459C4.84975 6.64601 4.60969 6.59832 4.38573 6.50556C4.16177 6.41279 3.95831 6.27677 3.78698 6.10527C3.61565 5.93378 3.47982 5.73018 3.38727 5.50613C3.29472 5.28208 3.24727 5.04198 3.24762 4.79957C3.2478 4.43457 3.3562 4.07783 3.55913 3.77445C3.76205 3.47106 4.05039 3.23467 4.38766 3.09516C4.72494 2.95564 5.09601 2.91928 5.45396 2.99066C5.8119 3.06204 6.14064 3.23796 6.39861 3.49617C6.65657 3.75439 6.83217 4.0833 6.90321 4.44131C6.97424 4.79932 6.93751 5.17036 6.79767 5.5075C6.65783 5.84465 6.42116 6.13275 6.11758 6.33538C5.814 6.53801 5.45715 6.64607 5.09216 6.6459ZM6.68546 18.2863H3.49886V8.04696H6.68546V18.2863ZM20.1918 0H1.90378C1.02845 0 0.320312 0.692039 0.320312 1.54591V19.9127C0.320312 20.7674 1.02845 21.4586 1.90378 21.4586H20.1892C21.0636 21.4586 21.7789 20.7674 21.7789 19.9127V1.54591C21.7789 0.692039 21.0636 0 20.1892 0H20.1918Z" fill="black"/>
</svg>
