<svg width="194" height="36" viewBox="0 0 194 36" fill="none" xmlns="http://www.w3.org/2000/svg">
<path d="M6.75607 2H0V5.85346H6.75607V6.79793H6.74429V9.32305H0V13.1765H6.74429V34.806H11.3272V5.85346H30.0958V2H6.75607Z" fill="url(#paint0_linear_612_833)"/>
<path d="M14.8379 34.8685H19.4203V13.1767H30.0951V9.32324H14.8492C14.8453 17.8382 14.8413 26.3531 14.8379 34.8685Z" fill="url(#paint1_linear_612_833)"/>
<path d="M41.0291 18.1339H36V16.2695H48.0699V18.1339H43.0408V34.6685H41.0291V18.1339Z" fill="black"/>
<path d="M49.002 25.4692C49.002 20.1455 53.1234 16 58.5202 16C63.917 16 68.0631 20.146 68.0631 25.4692C68.0631 30.7924 63.9661 35.012 58.5202 35.012C53.0743 35.012 49.002 30.8415 49.002 25.4692ZM66.0514 25.4692C66.0514 21.1759 62.7885 17.8398 58.5202 17.8398C54.252 17.8398 51.0382 21.1764 51.0382 25.4692C51.0382 29.762 54.252 33.1477 58.5202 33.1477C62.7885 33.1477 66.0514 29.7865 66.0514 25.4692Z" fill="black"/>
<path d="M85.9699 22.5499C85.9699 26.7696 82.9524 29.3944 77.531 29.3944C76.1325 29.3944 75.1512 29.2962 74.3417 29.0998V34.6685H72.3301V16.2695H78.4141C83.3942 16.2695 85.9699 18.9434 85.9699 22.5499ZM83.86 22.5499C83.86 20.1456 82.3393 18.0853 78.2669 18.0853H74.3417V27.3091C75.1512 27.4809 76.1325 27.5791 77.531 27.5791C81.9956 27.5791 83.86 25.5429 83.86 22.5499Z" fill="black"/>
<path d="M92.5444 19.5079H88.2266V16.2695H100.468V19.5079H96.1745V34.6685H92.5439V19.5079H92.5444Z" fill="black"/>
<path d="M115.457 34.6685L112.243 29.0998C111.729 29.1489 111.164 29.1735 110.6 29.1735C109.57 29.1735 108.711 29.0998 108 28.9526V34.6685H104.369V16.2695H111.533C116.365 16.2695 119.064 18.5757 119.064 22.4518C119.064 25.1747 117.813 27.0882 115.63 28.1676L119.481 34.6685H115.458H115.457ZM115.31 22.574C115.31 20.6851 114.28 19.4829 111.213 19.4829H107.999V25.8855C108.711 26.0082 109.52 26.0819 110.526 26.0819C113.887 26.0819 115.31 24.8551 115.31 22.574H115.31Z" fill="black"/>
<path d="M132.972 31.3566H125.858L124.484 34.6686H120.51L129.194 16.0488H129.636L138.345 34.6686H134.346L132.972 31.3566H132.972ZM129.415 22.6969L127.036 28.4373H131.77L129.415 22.6969H129.415Z" fill="black"/>
<path d="M157.677 25.4201C157.677 31.0869 153.507 35.0612 147.226 35.0612C144.92 35.0612 142.492 34.6439 141.412 34.2026V16.2695H147.545C153.605 16.2695 157.677 20.1456 157.677 25.4201ZM153.997 25.4938C153.997 22.2309 151.716 19.5325 147.594 19.5325H144.92V31.5533C145.779 31.7006 146.736 31.7987 147.594 31.7987C151.765 31.7987 153.997 29.0021 153.997 25.4943V25.4938Z" fill="black"/>
<path d="M174.112 31.4301V34.6685H161.969V16.2695H173.891V19.5079H165.403V23.4085H173.475V26.5487H165.403V31.4306H174.112V31.4301Z" fill="black"/>
<path d="M189.764 34.6685L186.55 29.0998C186.035 29.1489 185.471 29.1735 184.907 29.1735C183.876 29.1735 183.018 29.0998 182.306 28.9526V34.6685H178.676V16.2695H185.839C190.672 16.2695 193.37 18.5757 193.37 22.4518C193.37 25.1747 192.119 27.0882 189.936 28.1676L193.788 34.6685H189.764H189.764ZM189.617 22.574C189.617 20.6851 188.586 19.4829 185.52 19.4829H182.306V25.8855C183.017 26.0082 183.827 26.0819 184.832 26.0819C188.194 26.0819 189.616 24.8551 189.616 22.574H189.617Z" fill="black"/>
<path d="M41.096 2.6H42.2V11H41.096V7.22H37.016V11H35.9V2.6H37.016V6.164H41.096V2.6ZM45.1137 9.944H49.0137V11H43.9977V2.6H48.9537V3.656H45.1137V6.236H48.6537V7.28H45.1137V9.944ZM51.4769 9.944H55.1009V11H50.3609V2.6H51.4769V9.944ZM59.2683 2.6C60.0443 2.6 60.6883 2.86 61.2003 3.38C61.7203 3.892 61.9803 4.532 61.9803 5.3C61.9803 6.06 61.7203 6.7 61.2003 7.22C60.6883 7.74 60.0443 8 59.2683 8H57.3363V11H56.2203V2.6H59.2683ZM59.2683 6.956C59.7323 6.956 60.1163 6.8 60.4203 6.488C60.7243 6.168 60.8763 5.772 60.8763 5.3C60.8763 4.82 60.7243 4.424 60.4203 4.112C60.1163 3.8 59.7323 3.644 59.2683 3.644H57.3363V6.956H59.2683ZM70.2464 11.156C68.9744 11.156 67.9224 10.736 67.0904 9.896C66.2664 9.056 65.8544 8.024 65.8544 6.8C65.8544 5.576 66.2664 4.544 67.0904 3.704C67.9224 2.864 68.9744 2.444 70.2464 2.444C71.0144 2.444 71.7184 2.628 72.3584 2.996C73.0064 3.364 73.5104 3.86 73.8704 4.484L72.8984 5.048C72.6584 4.584 72.2984 4.216 71.8184 3.944C71.3464 3.664 70.8224 3.524 70.2464 3.524C69.2784 3.524 68.4864 3.836 67.8704 4.46C67.2624 5.084 66.9584 5.864 66.9584 6.8C66.9584 7.728 67.2624 8.504 67.8704 9.128C68.4864 9.752 69.2784 10.064 70.2464 10.064C70.8224 10.064 71.3464 9.928 71.8184 9.656C72.2984 9.376 72.6584 9.008 72.8984 8.552L73.8704 9.104C73.5184 9.728 73.0184 10.228 72.3704 10.604C71.7224 10.972 71.0144 11.156 70.2464 11.156ZM76.2504 9.944H80.1504V11H75.1344V2.6H80.0904V3.656H76.2504V6.236H79.7904V7.28H76.2504V9.944ZM86.7177 2.6H87.8337V11H86.9337L82.6137 4.724V11H81.4977V2.6H82.3977L86.7177 8.864V2.6ZM95.0065 2.6V3.656H92.5225V11H91.4185V3.656H88.9465V2.6H95.0065ZM97.2269 9.944H101.127V11H96.1109V2.6H101.067V3.656H97.2269V6.236H100.767V7.28H97.2269V9.944ZM107.454 11L105.57 7.784H103.59V11H102.474V2.6H105.834C106.554 2.6 107.17 2.856 107.682 3.368C108.194 3.872 108.45 4.484 108.45 5.204C108.45 5.748 108.286 6.244 107.958 6.692C107.638 7.14 107.222 7.456 106.71 7.64L108.69 11H107.454ZM103.59 3.644V6.776H105.834C106.25 6.776 106.602 6.624 106.89 6.32C107.186 6.008 107.334 5.636 107.334 5.204C107.334 4.772 107.186 4.404 106.89 4.1C106.602 3.796 106.25 3.644 105.834 3.644H103.59Z" fill="black"/>
<defs>
<linearGradient id="paint0_linear_612_833" x1="15.0481" y1="34.806" x2="15.0481" y2="2" gradientUnits="userSpaceOnUse">
<stop stop-color="#00EDC3"/>
<stop offset="0.48" stop-color="#397ECB"/>
<stop offset="1" stop-color="#7E49CE"/>
</linearGradient>
<linearGradient id="paint1_linear_612_833" x1="22.4668" y1="34.8685" x2="22.4668" y2="9.32324" gradientUnits="userSpaceOnUse">
<stop stop-color="#00EDC3"/>
<stop offset="0.515625" stop-color="#397ECB"/>
<stop offset="1" stop-color="#7E49CE"/>
</linearGradient>
</defs>
</svg>
