<svg width="28" height="28" viewBox="0 0 28 28" fill="none" xmlns="http://www.w3.org/2000/svg">
<path d="M25.6673 7.29183V13.2418C25.6673 14.7235 25.1773 15.9718 24.3023 16.8352C23.439 17.7102 22.1907 18.2002 20.709 18.2002V20.3118C20.709 21.1052 19.8223 21.5835 19.169 21.1402L18.0373 20.3935C18.1423 20.0318 18.189 19.6352 18.189 19.2152V14.4668C18.189 12.0868 16.6023 10.5002 14.2223 10.5002H6.30065C6.13732 10.5002 5.98565 10.5118 5.83398 10.5235V7.29183C5.83398 4.31683 7.81732 2.3335 10.7923 2.3335H20.709C23.684 2.3335 25.6673 4.31683 25.6673 7.29183Z" stroke="black" stroke-width="1.5" stroke-miterlimit="10" stroke-linecap="round" stroke-linejoin="round"/>
<path d="M18.189 14.4667V19.215C18.189 19.635 18.1423 20.0317 18.0373 20.3933C17.6057 22.1083 16.1823 23.1817 14.2223 23.1817H11.049L7.52565 25.5267C7.40754 25.6075 7.26953 25.6544 7.12661 25.6623C6.98369 25.6702 6.84135 25.6388 6.71506 25.5714C6.58876 25.5041 6.48335 25.4034 6.41029 25.2803C6.33723 25.1572 6.29931 25.0165 6.30065 24.8733V23.1817C5.11065 23.1817 4.11898 22.785 3.43065 22.0967C2.73065 21.3967 2.33398 20.405 2.33398 19.215V14.4667C2.33398 12.25 3.71065 10.7217 5.83398 10.5233C5.98565 10.5117 6.13732 10.5 6.30065 10.5H14.2223C16.6023 10.5 18.189 12.0867 18.189 14.4667Z" stroke="black" stroke-width="1.5" stroke-miterlimit="10" stroke-linecap="round" stroke-linejoin="round"/>
</svg>
