<svg width="69" height="69" viewBox="0 0 69 69" fill="none" xmlns="http://www.w3.org/2000/svg">
<rect width="69" height="69" rx="17" fill="#925DE7"/>
<path d="M47.2828 22.1521L37.5161 17.8021C36.0828 17.1688 33.9161 17.1688 32.4828 17.8021L22.7161 22.1521C20.2495 23.2521 19.8828 24.7521 19.8828 25.5521C19.8828 26.3521 20.2495 27.8521 22.7161 28.9521L32.4828 33.3021C33.1995 33.6188 34.0995 33.7855 34.9995 33.7855C35.8995 33.7855 36.7995 33.6188 37.5161 33.3021L47.2828 28.9521C49.7495 27.8521 50.1161 26.3521 50.1161 25.5521C50.1161 24.7521 49.7661 23.2521 47.2828 22.1521Z" fill="black"/>
<path d="M35.0005 42.3997C34.3672 42.3997 33.7339 42.2663 33.1505 42.0163L21.9172 37.0163C20.2005 36.2497 18.8672 34.1997 18.8672 32.3163C18.8672 31.633 19.4172 31.083 20.1005 31.083C20.7839 31.083 21.3339 31.633 21.3339 32.3163C21.3339 33.2163 22.0839 34.383 22.9172 34.7497L34.1505 39.7497C34.6839 39.983 35.3005 39.983 35.8339 39.7497L47.0672 34.7497C47.9005 34.383 48.6505 33.233 48.6505 32.3163C48.6505 31.633 49.2005 31.083 49.8839 31.083C50.5672 31.083 51.1172 31.633 51.1172 32.3163C51.1172 34.183 49.7839 36.2497 48.0672 37.0163L36.8339 42.0163C36.2672 42.2663 35.6339 42.3997 35.0005 42.3997Z" fill="black"/>
<path d="M35.0005 50.6663C34.3672 50.6663 33.7339 50.5329 33.1505 50.2829L21.9172 45.2829C21.0087 44.8784 20.2371 44.2191 19.6958 43.3849C19.1544 42.5507 18.8666 41.5774 18.8672 40.5829C18.8672 39.8996 19.4172 39.3496 20.1005 39.3496C20.7839 39.3496 21.3339 39.8996 21.3339 40.5829C21.3339 41.6329 21.9505 42.5829 22.9172 43.0163L34.1505 48.0163C34.6839 48.2496 35.3005 48.2496 35.8339 48.0163L47.0672 43.0163C48.0172 42.5996 48.6505 41.6329 48.6505 40.5829C48.6505 39.8996 49.2005 39.3496 49.8839 39.3496C50.5672 39.3496 51.1172 39.8996 51.1172 40.5829C51.1172 42.6163 49.9172 44.4496 48.0672 45.2829L36.8339 50.2829C36.2672 50.5329 35.6339 50.6663 35.0005 50.6663Z" fill="black"/>
</svg>
