<svg width="69" height="69" viewBox="0 0 69 69" fill="none" xmlns="http://www.w3.org/2000/svg">
<rect width="69" height="69" rx="17" fill="#F9CF62"/>
<path d="M49.0215 31.4082H44.0844C40.0357 31.4082 36.7386 28.1112 36.7386 24.0624V19.1253C36.7386 18.1857 35.9698 17.417 35.0302 17.417H27.7869C22.5252 17.417 18.2715 20.8337 18.2715 26.9324V42.0682C18.2715 48.167 22.5252 51.5837 27.7869 51.5837H41.2144C46.4761 51.5837 50.7298 48.167 50.7298 42.0682V33.1166C50.7298 32.177 49.9611 31.4082 49.0215 31.4082ZM33.6977 37.1141C33.4415 37.3703 33.1169 37.4899 32.7923 37.4899C32.4677 37.4899 32.1432 37.3703 31.8869 37.1141L30.6569 35.8841V43.042C30.6569 43.7424 30.0761 44.3232 29.3757 44.3232C28.6752 44.3232 28.0944 43.7424 28.0944 43.042V35.8841L26.8644 37.1141C26.369 37.6095 25.549 37.6095 25.0536 37.1141C24.8153 36.873 24.6817 36.5476 24.6817 36.2087C24.6817 35.8697 24.8153 35.5444 25.0536 35.3032L28.4702 31.8866C28.5898 31.7841 28.7094 31.6987 28.8461 31.6303C28.8802 31.6132 28.9315 31.5962 28.9657 31.5791C29.0682 31.5449 29.1707 31.5278 29.2902 31.5107H29.4269C29.5636 31.5107 29.7002 31.5449 29.8369 31.5962H29.8711C30.0077 31.6474 30.1444 31.7499 30.2469 31.8524C30.264 31.8695 30.2811 31.8695 30.2811 31.8866L33.6977 35.3032C34.1931 35.7987 34.1931 36.6187 33.6977 37.1141Z" fill="black"/>
<path d="M43.776 29.0503C45.399 29.0673 47.654 29.0673 49.5844 29.0673C50.5581 29.0673 51.0706 27.9228 50.3873 27.2394C47.9273 24.7623 43.5198 20.3036 40.9915 17.7753C40.291 17.0748 39.0781 17.5532 39.0781 18.5269V24.489C39.0781 26.9832 41.1965 29.0503 43.776 29.0503Z" fill="black"/>
<rect x="22" y="30" width="15" height="17" fill="black"/>
<rect x="35" y="38" width="3" height="11" rx="1.5" transform="rotate(90 35 38)" fill="#F9CF62"/>
<rect x="31" y="45" width="3" height="11" rx="1.5" transform="rotate(-180 31 45)" fill="#F9CF62"/>
</svg>
