<svg width="69" height="69" viewBox="0 0 69 69" fill="none" xmlns="http://www.w3.org/2000/svg">
<rect width="69" height="69" rx="17" fill="#30D8EF"/>
<path d="M45.9833 21.6958L36.8167 18.2625C35.8667 17.9125 34.3167 17.9125 33.3667 18.2625L24.2 21.6958C22.4333 22.3625 21 24.4292 21 26.3125V39.8125C21 41.1625 21.8833 42.9458 22.9667 43.7458L32.1333 50.5958C33.75 51.8125 36.4 51.8125 38.0167 50.5958L47.1833 43.7458C48.2667 42.9292 49.15 41.1625 49.15 39.8125V26.3125C49.1667 24.4292 47.7333 22.3625 45.9833 21.6958ZM36.3333 36.1958V40.5792C36.3333 41.2625 35.7667 41.8292 35.0833 41.8292C34.4 41.8292 33.8333 41.2625 33.8333 40.5792V36.1958C32.9911 35.9318 32.2547 35.4068 31.7304 34.6968C31.2061 33.9868 30.9211 33.1284 30.9167 32.2458C30.9167 31.1408 31.3557 30.081 32.1371 29.2996C32.9185 28.5182 33.9783 28.0792 35.0833 28.0792C36.1884 28.0792 37.2482 28.5182 38.0296 29.2996C38.811 30.081 39.25 31.1408 39.25 32.2458C39.25 34.1125 38.0167 35.6625 36.3333 36.1958Z" fill="black"/>
</svg>
