<svg width="69" height="69" viewBox="0 0 69 69" fill="none" xmlns="http://www.w3.org/2000/svg">
<rect width="69" height="69" rx="17" fill="#F9CF62"/>
<path d="M46.8169 35.9804C46.5502 35.9804 46.2835 35.8971 46.0502 35.7137C39.3335 30.5304 30.6502 30.5304 23.9335 35.7137C23.3835 36.1304 22.6002 36.0304 22.1835 35.4971C21.7669 34.9471 21.8669 34.1637 22.4002 33.7471C30.0502 27.8304 39.9335 27.8304 47.5669 33.7471C48.1169 34.1637 48.2169 34.9471 47.7835 35.4971C47.5669 35.8137 47.2002 35.9804 46.8169 35.9804Z" fill="black"/>
<path d="M51.6659 30.1804C51.3992 30.1804 51.1325 30.0971 50.8992 29.9137C41.2325 22.4471 28.7492 22.4471 19.0992 29.9137C18.5492 30.3304 17.7659 30.2304 17.3492 29.6971C17.2468 29.5687 17.171 29.4211 17.1264 29.263C17.0818 29.1049 17.0692 28.9395 17.0894 28.7765C17.1096 28.6135 17.1621 28.4561 17.244 28.3137C17.3258 28.1713 17.4352 28.0466 17.5659 27.9471C28.1492 19.7637 41.8325 19.7637 52.4325 27.9471C52.9825 28.3637 53.0825 29.1471 52.6492 29.6971C52.4159 30.0137 52.0325 30.1804 51.6659 30.1804ZM43.6825 42.0687C43.4159 42.0687 43.1492 41.9854 42.9159 41.8021C38.1159 38.0854 31.8992 38.0854 27.0825 41.8021C26.5325 42.2187 25.7492 42.1187 25.3325 41.5854C24.9159 41.0354 25.0159 40.2521 25.5492 39.8354C31.2825 35.4021 38.6992 35.4021 44.4325 39.8354C44.9825 40.2521 45.0825 41.0354 44.6492 41.5854C44.5371 41.736 44.3912 41.8581 44.2234 41.9421C44.0555 42.026 43.8702 42.0694 43.6825 42.0687ZM39.3325 48.1671C39.0659 48.1671 38.7992 48.0837 38.5659 47.9004C36.3992 46.2171 33.5825 46.2171 31.4159 47.9004C30.8659 48.3171 30.0825 48.2171 29.6659 47.6837C29.2492 47.1337 29.3492 46.3504 29.8825 45.9337C32.9825 43.5337 36.9825 43.5337 40.0825 45.9337C40.6325 46.3504 40.7325 47.1337 40.2992 47.6837C40.1871 47.8343 40.0412 47.9564 39.8734 48.0404C39.7055 48.1243 39.5202 48.1677 39.3325 48.1671Z" fill="black"/>
</svg>
