<svg width="148" height="22" viewBox="0 0 148 22" fill="none" xmlns="http://www.w3.org/2000/svg">
<path d="M21.4577 10.7297C21.4577 4.80334 16.6543 0 10.7288 0C4.80334 0 0 4.80334 0 10.7297C0 16.0839 3.9235 20.5224 9.05231 21.3271V13.8306H6.32875V10.7288H9.05231V8.36561C9.05231 5.67603 10.6546 4.19085 13.1046 4.19085C14.2786 4.19085 15.5062 4.40008 15.5062 4.40008V7.04049H14.1543C12.822 7.04049 12.4062 7.86757 12.4062 8.71612V10.7297H15.382L14.9063 13.8315H12.4062V21.328C17.5351 20.5233 21.4586 16.0848 21.4586 10.7297H21.4577Z" fill="black"/>
<path d="M51.1883 0C48.2735 0 47.9096 0.0134116 46.7651 0.0643757C45.6225 0.118022 44.8446 0.297738 44.1606 0.563287C43.4551 0.836884 42.8561 1.20436 42.2597 1.80073C41.6633 2.3971 41.295 2.99526 41.0223 3.7016C40.7567 4.38559 40.5761 5.16347 40.5234 6.30614C40.4697 7.45059 40.459 7.81449 40.459 10.7293C40.459 13.6441 40.4724 14.008 40.5234 15.1524C40.577 16.2942 40.7567 17.073 41.0223 17.757C41.2917 18.473 41.7139 19.1217 42.2597 19.6578C42.7955 20.204 43.4443 20.6263 44.1606 20.8953C44.8455 21.1599 45.6233 21.3414 46.7651 21.3942C47.9096 21.4478 48.2735 21.4586 51.1883 21.4586C54.1031 21.4586 54.467 21.4452 55.6114 21.3942C56.7532 21.3405 57.532 21.1599 58.2159 20.8953C58.9318 20.6256 59.5805 20.2033 60.1168 19.6578C60.6631 19.1222 61.0855 18.4733 61.3543 17.757C61.6189 17.073 61.8004 16.2942 61.8532 15.1524C61.9068 14.008 61.9175 13.6441 61.9175 10.7293C61.9175 7.81449 61.9041 7.45059 61.8532 6.30614C61.7995 5.16436 61.6189 4.3847 61.3543 3.7016C61.0847 2.98562 60.6625 2.33695 60.1168 1.80073C59.5814 1.25411 58.9325 0.831689 58.2159 0.563287C57.532 0.297738 56.7532 0.117128 55.6114 0.0643757C54.467 0.0107293 54.1031 0 51.1883 0ZM51.1883 1.93127C54.0521 1.93127 54.3936 1.94558 55.5247 1.99475C56.5708 2.04393 57.1385 2.21738 57.5159 2.36581C58.0183 2.55983 58.3742 2.7923 58.7515 3.16693C59.1261 3.54245 59.3586 3.8992 59.5526 4.40169C59.6993 4.779 59.8745 5.34676 59.9219 6.39286C59.9729 7.5248 59.9845 7.86456 59.9845 10.7293C59.9845 13.594 59.9711 13.9347 59.9183 15.0657C59.8638 16.1118 59.6894 16.6796 59.5419 17.0569C59.3674 17.5225 59.093 17.9442 58.7381 18.2925C58.3913 18.6478 57.9698 18.9214 57.5042 19.0937C57.1287 19.2403 56.552 19.4155 55.5059 19.4629C54.3668 19.5139 54.0315 19.5255 51.1614 19.5255C48.2905 19.5255 47.9552 19.5121 46.817 19.4593C45.77 19.4048 45.1933 19.2304 44.8178 19.0829C44.3518 18.9105 43.9305 18.6359 43.5848 18.2791C43.2259 17.9347 42.9506 17.5126 42.7801 17.0453C42.6326 16.6697 42.4591 16.093 42.4046 15.0469C42.3643 13.9203 42.35 13.5725 42.35 10.7159C42.35 7.8583 42.3643 7.5096 42.4046 6.36962C42.4591 5.32351 42.6326 4.74771 42.7801 4.37218C42.9678 3.86254 43.2084 3.51384 43.5848 3.13742C43.9594 2.76279 44.309 2.52138 44.8178 2.33451C45.1933 2.18609 45.7575 2.01174 46.8036 1.95809C47.9436 1.91786 48.2788 1.90445 51.148 1.90445L51.1883 1.93127ZM51.1883 5.2198C50.4648 5.2198 49.7483 5.3623 49.0799 5.63918C48.4114 5.91606 47.8041 6.32188 47.2925 6.83349C46.7809 7.34509 46.375 7.95245 46.0982 8.62089C45.8213 9.28933 45.6788 10.0058 45.6788 10.7293C45.6788 11.4528 45.8213 12.1692 46.0982 12.8377C46.375 13.5061 46.7809 14.1135 47.2925 14.6251C47.8041 15.1367 48.4114 15.5425 49.0799 15.8194C49.7483 16.0963 50.4648 16.2388 51.1883 16.2388C52.6495 16.2388 54.0508 15.6583 55.0841 14.6251C56.1173 13.5918 56.6978 12.1905 56.6978 10.7293C56.6978 9.26808 56.1173 7.86672 55.0841 6.83349C54.0508 5.80026 52.6495 5.2198 51.1883 5.2198ZM51.1883 14.3057C49.2123 14.3057 47.6118 12.7053 47.6118 10.7293C47.6118 8.75331 49.2123 7.15285 51.1883 7.15285C53.1642 7.15285 54.7647 8.75331 54.7647 10.7293C54.7647 12.7053 53.1642 14.3057 51.1883 14.3057ZM58.2034 5.00253C58.191 5.33569 58.0499 5.65108 57.8098 5.88239C57.5697 6.11371 57.2493 6.24294 56.9159 6.24294C56.5825 6.24294 56.2621 6.11371 56.022 5.88239C55.7819 5.65108 55.6408 5.33569 55.6284 5.00253C55.6284 4.66106 55.764 4.33357 56.0055 4.09212C56.247 3.85066 56.5744 3.71501 56.9159 3.71501C57.2574 3.71501 57.5849 3.85066 57.8263 4.09212C58.0678 4.33357 58.2034 4.66106 58.2034 5.00253Z" fill="black"/>
<path d="M144.602 18.2863H141.424V13.307C141.424 12.1196 141.4 10.5916 139.769 10.5916C138.112 10.5916 137.859 11.8836 137.859 13.2194V18.2863H134.681V8.04696H137.734V9.44266H137.775C138.201 8.63797 139.238 7.78856 140.788 7.78856C144.008 7.78856 144.603 9.9076 144.603 12.6659L144.602 18.2863ZM131.092 6.6459C130.85 6.64601 130.61 6.59832 130.386 6.50556C130.162 6.41279 129.958 6.27677 129.787 6.10527C129.616 5.93378 129.48 5.73018 129.387 5.50613C129.295 5.28208 129.247 5.04198 129.248 4.79957C129.248 4.43457 129.356 4.07783 129.559 3.77445C129.762 3.47106 130.05 3.23467 130.388 3.09516C130.725 2.95564 131.096 2.91928 131.454 2.99066C131.812 3.06204 132.141 3.23796 132.399 3.49617C132.657 3.75439 132.832 4.0833 132.903 4.44131C132.974 4.79932 132.938 5.17036 132.798 5.5075C132.658 5.84465 132.421 6.13275 132.118 6.33538C131.814 6.53801 131.457 6.64607 131.092 6.6459ZM132.685 18.2863H129.499V8.04696H132.685V18.2863ZM146.192 0H127.904C127.028 0 126.32 0.692039 126.32 1.54591V19.9127C126.32 20.7674 127.028 21.4586 127.904 21.4586H146.189C147.064 21.4586 147.779 20.7674 147.779 19.9127V1.54591C147.779 0.692039 147.064 0 146.189 0H146.192Z" fill="black"/>
<path d="M107.268 2.55589C106.279 2.99106 105.232 3.27832 104.16 3.4084C105.289 2.72997 106.134 1.66603 106.54 0.413061C105.493 1.02357 104.334 1.46798 103.1 1.71548C102.286 0.84474 101.207 0.267223 100.03 0.0726083C98.8542 -0.122006 97.6467 0.0771722 96.5953 0.639214C95.544 1.20126 94.7076 2.09471 94.2161 3.18084C93.7246 4.26696 93.6055 5.48498 93.8773 6.64575C89.3782 6.43345 85.3906 4.27302 82.722 1.00707C82.2367 1.83188 81.9835 2.77262 81.9894 3.72961C81.9894 5.61064 82.9464 7.26396 84.3962 8.23527C83.5369 8.20792 82.6967 7.9756 81.9454 7.55766V7.62476C81.9449 8.87481 82.3769 10.0865 83.1681 11.0543C83.9592 12.0222 85.0609 12.6865 86.286 12.9345C85.4922 13.1473 84.6607 13.1792 83.8528 13.028C84.2007 14.1038 84.8756 15.0441 85.7835 15.7179C86.6914 16.3917 87.7869 16.7654 88.9173 16.7868C87.0027 18.2893 84.6387 19.1048 82.205 19.1023C81.776 19.1023 81.3481 19.077 80.918 19.0286C83.3993 20.6174 86.2844 21.4608 89.2308 21.4586C99.1903 21.4586 104.63 13.2128 104.63 6.07374C104.63 5.84384 104.63 5.61173 104.613 5.38073C105.676 4.61605 106.593 3.66669 107.319 2.57789L107.268 2.55589Z" fill="black"/>
</svg>
