<svg width="28" height="22" viewBox="0 0 28 22" fill="none" xmlns="http://www.w3.org/2000/svg">
<path d="M27.2677 2.55589C26.2794 2.99106 25.2323 3.27832 24.1602 3.4084C25.2889 2.72997 26.1341 1.66603 26.5395 0.413061C25.4934 1.02357 24.334 1.46798 23.0998 1.71548C22.2855 0.84474 21.2065 0.267223 20.0303 0.0726083C18.8542 -0.122006 17.6467 0.0771722 16.5953 0.639214C15.544 1.20126 14.7076 2.09471 14.2161 3.18084C13.7246 4.26696 13.6055 5.48498 13.8773 6.64575C9.37819 6.43345 5.39063 4.27302 2.72199 1.00707C2.23666 1.83188 1.98351 2.77262 1.98938 3.72961C1.98938 5.61064 2.9464 7.26396 4.39622 8.23527C3.53695 8.20792 2.69666 7.9756 1.94538 7.55766V7.62476C1.9449 8.87481 2.37688 10.0865 3.16806 11.0543C3.95923 12.0222 5.06086 12.6865 6.28605 12.9345C5.49216 13.1473 4.66068 13.1792 3.85281 13.028C4.20069 14.1038 4.87564 15.0441 5.7835 15.7179C6.69137 16.3917 7.7869 16.7654 8.91728 16.7868C7.00269 18.2893 4.63873 19.1048 2.20499 19.1023C1.77598 19.1023 1.34807 19.077 0.917969 19.0286C3.39928 20.6174 6.28441 21.4608 9.23079 21.4586C19.1903 21.4586 24.6299 13.2128 24.6299 6.07374C24.6299 5.84384 24.6299 5.61173 24.6134 5.38073C25.676 4.61605 26.5926 3.66669 27.3194 2.57789L27.2677 2.55589Z" fill="black"/>
</svg>
