<svg width="16" height="18" viewBox="0 0 16 18" fill="none" xmlns="http://www.w3.org/2000/svg">
<path d="M10.8859 1.82875V0.59375C10.8859 0.269167 10.6168 0 10.2922 0C9.96759 0 9.69842 0.269167 9.69842 0.59375V1.78125H4.55259V0.59375C4.55259 0.269167 4.28342 0 3.95884 0C3.63426 0 3.36509 0.269167 3.36509 0.59375V1.82875C1.22759 2.02667 0.190507 3.30125 0.0321736 5.19333C0.0163403 5.42292 0.20634 5.61292 0.428007 5.61292H13.823C14.0526 5.61292 14.2426 5.415 14.2188 5.19333C14.0605 3.30125 13.0234 2.02667 10.8859 1.82875ZM12.6672 10.8854C10.9176 10.8854 9.50051 12.3025 9.50051 14.0521C9.50051 14.6458 9.66676 15.2079 9.95967 15.6829C10.2388 16.152 10.6352 16.5403 11.1099 16.8096C11.5847 17.0789 12.1214 17.2199 12.6672 17.2188C13.823 17.2188 14.8284 16.6012 15.3747 15.6829C15.6676 15.2079 15.8338 14.6458 15.8338 14.0521C15.8338 12.3025 14.4168 10.8854 12.6672 10.8854ZM14.3059 13.7117L12.6197 15.2712C12.5088 15.3742 12.3584 15.4296 12.2159 15.4296C12.0655 15.4296 11.9151 15.3742 11.7963 15.2554L11.0126 14.4717C10.9022 14.3599 10.8402 14.2092 10.8402 14.0521C10.8402 13.895 10.9022 13.7442 11.0126 13.6325C11.2422 13.4029 11.6222 13.4029 11.8518 13.6325L12.2318 14.0125L13.4984 12.8408C13.7359 12.6192 14.1159 12.635 14.3376 12.8725C14.5593 13.11 14.5434 13.4821 14.3059 13.7117Z" fill="#434343"/>
<path d="M13.4583 6.80029H0.791667C0.35625 6.80029 0 7.15654 0 7.59196V12.4686C0 14.8436 1.1875 16.427 3.95833 16.427H7.86125C8.4075 16.427 8.7875 15.8965 8.61333 15.382C8.455 14.9228 8.32042 14.4161 8.32042 14.052C8.32042 11.6532 10.2758 9.69779 12.6746 9.69779C12.9042 9.69779 13.1337 9.71363 13.3554 9.75321C13.8304 9.82446 14.2579 9.45238 14.2579 8.97738V7.59988C14.2559 7.38845 14.1709 7.18627 14.0214 7.03677C13.8719 6.88726 13.6698 6.80236 13.4583 6.80029ZM4.91625 13.4265C4.76583 13.569 4.56 13.6561 4.35417 13.6561C4.14833 13.6561 3.9425 13.569 3.79208 13.4265C3.64958 13.2761 3.5625 13.0703 3.5625 12.8645C3.5625 12.6586 3.64958 12.4528 3.79208 12.3024C3.87125 12.2311 3.95042 12.1757 4.05333 12.1361C4.34625 12.0095 4.69458 12.0807 4.91625 12.3024C5.05875 12.4528 5.14583 12.6586 5.14583 12.8645C5.14583 13.0703 5.05875 13.2761 4.91625 13.4265ZM4.91625 10.6557L4.7975 10.7507C4.75 10.7824 4.7025 10.8061 4.655 10.822C4.6075 10.8457 4.56 10.8615 4.5125 10.8695C4.45708 10.8774 4.40167 10.8853 4.35417 10.8853C4.14833 10.8853 3.9425 10.7982 3.79208 10.6557C3.64958 10.5053 3.5625 10.2995 3.5625 10.0936C3.5625 9.88779 3.64958 9.68196 3.79208 9.53154C3.97417 9.34946 4.25125 9.26238 4.5125 9.31779C4.56 9.32571 4.6075 9.34154 4.655 9.36529C4.7025 9.38113 4.75 9.40488 4.7975 9.43654L4.91625 9.53154C5.05875 9.68196 5.14583 9.88779 5.14583 10.0936C5.14583 10.2995 5.05875 10.5053 4.91625 10.6557ZM7.68708 10.6557C7.53667 10.7982 7.33083 10.8853 7.125 10.8853C6.91917 10.8853 6.71333 10.7982 6.56292 10.6557C6.42042 10.5053 6.33333 10.2995 6.33333 10.0936C6.33333 9.88779 6.42042 9.68196 6.56292 9.53154C6.86375 9.23863 7.39417 9.23863 7.68708 9.53154C7.82958 9.68196 7.91667 9.88779 7.91667 10.0936C7.91667 10.2995 7.82958 10.5053 7.68708 10.6557Z" fill="#434343"/>
</svg>
