<svg width="69" height="69" viewBox="0 0 69 69" fill="none" xmlns="http://www.w3.org/2000/svg">
<rect width="69" height="69" rx="17" fill="#30D8EF"/>
<path d="M52.5266 31.6881L50.0333 28.7914C49.5566 28.2414 49.1716 27.2147 49.1716 26.4814V23.3647C49.1716 21.4214 47.5766 19.8264 45.6333 19.8264H42.5166C41.8016 19.8264 40.7566 19.4414 40.2066 18.9647L37.3099 16.4714C36.0449 15.3897 33.9733 15.3897 32.6899 16.4714L29.8116 18.9831C29.2616 19.4414 28.2166 19.8264 27.5016 19.8264H24.3299C22.3866 19.8264 20.7916 21.4214 20.7916 23.3647V26.4997C20.7916 27.2147 20.4066 28.2414 19.9483 28.7914L17.4733 31.7064C16.4099 32.9714 16.4099 35.0247 17.4733 36.2897L19.9483 39.2047C20.4066 39.7547 20.7916 40.7814 20.7916 41.4964V44.6314C20.7916 46.5747 22.3866 48.1697 24.3299 48.1697H27.5016C28.2166 48.1697 29.2616 48.5547 29.8116 49.0314L32.7083 51.5247C33.9733 52.6064 36.045 52.6064 37.3283 51.5247L40.225 49.0314C40.775 48.5547 41.8016 48.1697 42.535 48.1697H45.6516C47.5949 48.1697 49.19 46.5747 49.19 44.6314V41.5147C49.19 40.7997 49.575 39.7547 50.0516 39.2047L52.545 36.3081C53.6083 35.0431 53.6083 32.9531 52.5266 31.6881ZM42.6266 30.5331L33.7716 39.3881C33.5138 39.6456 33.1643 39.7902 32.7999 39.7902C32.4356 39.7902 32.0861 39.6456 31.8283 39.3881L27.3916 34.9514C27.1359 34.6927 26.9925 34.3435 26.9925 33.9797C26.9925 33.616 27.1359 33.2668 27.3916 33.0081C27.9233 32.4764 28.8033 32.4764 29.3349 33.0081L32.7999 36.4731L40.6833 28.5897C41.215 28.0581 42.0949 28.0581 42.6266 28.5897C43.1583 29.1214 43.1583 30.0014 42.6266 30.5331Z" fill="black"/>
</svg>
